<?xml version="1.0" encoding="UTF-8"?>
<!DOCTYPE svg PUBLIC "-//W3C//DTD SVG 1.1//EN" "http://www.w3.org/Graphics/SVG/1.1/DTD/svg11.dtd">
<svg xmlns="http://www.w3.org/2000/svg" version="1.1" width="32px" height="32px" style="shape-rendering:geometricPrecision; text-rendering:geometricPrecision; image-rendering:optimizeQuality; fill-rule:evenodd; clip-rule:evenodd" xmlns:xlink="http://www.w3.org/1999/xlink">
<g><path style="opacity:1" fill="#f2e2da" d="M -0.5,-0.5 C 10.1667,-0.5 20.8333,-0.5 31.5,-0.5C 31.5,4.5 31.5,9.5 31.5,14.5C 31.1667,14.5 30.8333,14.5 30.5,14.5C 30.6646,11.4816 30.498,8.48162 30,5.5C 29.2496,4.87424 28.4162,4.37424 27.5,4C 20.8333,3.33333 14.1667,3.33333 7.5,4C 4.94273,4.68532 3.1094,6.18532 2,8.5C 0.774779,13.0853 0.274779,17.752 0.5,22.5C 0.166667,22.5 -0.166667,22.5 -0.5,22.5C -0.5,14.8333 -0.5,7.16667 -0.5,-0.5 Z"/></g>
<g><path style="opacity:1" fill="#fe5802" d="M 30.5,14.5 C 29.8902,15.391 29.5569,16.391 29.5,17.5C 21.4723,17.169 13.4723,17.5023 5.5,18.5C 5.62358,19.1067 5.95691,19.44 6.5,19.5C 6.61071,20.1174 6.94404,20.6174 7.5,21C 10.146,21.4974 12.8127,21.6641 15.5,21.5C 16.0908,25.7406 14.2575,27.4073 10,26.5C 6.12511,26.6408 2.95844,25.3075 0.5,22.5C 0.274779,17.752 0.774779,13.0853 2,8.5C 3.1094,6.18532 4.94273,4.68532 7.5,4C 14.1667,3.33333 20.8333,3.33333 27.5,4C 28.4162,4.37424 29.2496,4.87424 30,5.5C 30.498,8.48162 30.6646,11.4816 30.5,14.5 Z"/></g>
<g><path style="opacity:1" fill="#ae9a92" d="M 7.5,9.5 C 13.0738,11.4533 19.0738,12.12 25.5,11.5C 19.3554,12.4902 13.0221,12.8235 6.5,12.5C 6.26269,11.209 6.59603,10.209 7.5,9.5 Z"/></g>
<g><path style="opacity:1" fill="#f6e5dd" d="M 25.5,11.5 C 19.0738,12.12 13.0738,11.4533 7.5,9.5C 8.26253,8.73209 9.26253,8.23209 10.5,8C 14.8333,7.33333 19.1667,7.33333 23.5,8C 24.9733,8.70956 25.6399,9.87623 25.5,11.5 Z"/></g>
<g><path style="opacity:1" fill="#f7f5f4" d="M 30.5,14.5 C 30.8333,14.5 31.1667,14.5 31.5,14.5C 31.5,20.1667 31.5,25.8333 31.5,31.5C 20.8333,31.5 10.1667,31.5 -0.5,31.5C -0.5,28.5 -0.5,25.5 -0.5,22.5C -0.166667,22.5 0.166667,22.5 0.5,22.5C 2.95844,25.3075 6.12511,26.6408 10,26.5C 14.2575,27.4073 16.0908,25.7406 15.5,21.5C 12.8127,21.6641 10.146,21.4974 7.5,21C 6.94404,20.6174 6.61071,20.1174 6.5,19.5C 14.1667,18.8333 21.8333,18.1667 29.5,17.5C 29.5569,16.391 29.8902,15.391 30.5,14.5 Z"/></g>
<g><path style="opacity:1" fill="#9e9693" d="M 29.5,17.5 C 21.8333,18.1667 14.1667,18.8333 6.5,19.5C 5.95691,19.44 5.62358,19.1067 5.5,18.5C 13.4723,17.5023 21.4723,17.169 29.5,17.5 Z"/></g>
</svg>
